<?xml version="1.0" encoding="UTF-8" standalone="no"?>
<!DOCTYPE svg PUBLIC "-//W3C//DTD SVG 1.1//EN"
 "http://www.w3.org/Graphics/SVG/1.1/DTD/svg11.dtd">
<!-- Generated by graphviz version 2.38.0 (20140413.2041)
 -->
<!-- Title: foo Pages: 1 -->
<svg width="522pt" height="46pt"
 viewBox="0.00 0.00 522.40 46.47" xmlns="http://www.w3.org/2000/svg" xmlns:xlink="http://www.w3.org/1999/xlink">
<g id="graph0" class="graph" transform="scale(1 1) rotate(0) translate(4 42.4727)">
<title>foo</title>
<polygon fill="white" stroke="none" points="-4,4 -4,-42.4727 518.397,-42.4727 518.397,4 -4,4"/>
<!-- 5 -->
<g id="node1" class="node"><title>5</title>
<ellipse fill="none" stroke="black" cx="496.198" cy="-20.2744" rx="18.399" ry="18.399"/>
<text text-anchor="middle" x="496.198" y="-16.5744" font-family="Times New Roman,serif" font-size="14.00">...</text>
</g>
<!-- 4 -->
<g id="node6" class="node"><title>4</title>
<ellipse fill="none" stroke="black" cx="395" cy="-20.2744" rx="18" ry="18"/>
<text text-anchor="middle" x="395" y="-16.5744" font-family="Times New Roman,serif" font-size="14.00">4</text>
</g>
<!-- 5&#45;&gt;4 -->
<g id="edge10" class="edge"><title>5&#45;&gt;4</title>
<path fill="none" stroke="black" d="M477.919,-20.2744C462.842,-20.2744 440.706,-20.2744 423.244,-20.2744"/>
<polygon fill="black" stroke="black" points="423.081,-16.7745 413.081,-20.2744 423.081,-23.7745 423.081,-16.7745"/>
<text text-anchor="middle" x="445.5" y="-24.0744" font-family="Times New Roman,serif" font-size="14.00"> 3μ </text>
</g>
<!-- 0 -->
<g id="node2" class="node"><title>0</title>
<ellipse fill="lightgray" stroke="black" cx="18" cy="-20.2744" rx="18" ry="18"/>
<text text-anchor="middle" x="18" y="-16.5744" font-family="Times New Roman,serif" font-size="14.00">0</text>
</g>
<!-- 1 -->
<g id="node3" class="node"><title>1</title>
<ellipse fill="lightgray" stroke="black" cx="106" cy="-20.2744" rx="18" ry="18"/>
<text text-anchor="middle" x="106" y="-16.5744" font-family="Times New Roman,serif" font-size="14.00">1</text>
</g>
<!-- 0&#45;&gt;1 -->
<g id="edge1" class="edge"><title>0&#45;&gt;1</title>
<path fill="none" stroke="black" d="M33.7168,-10.7321C39.7499,-7.3574 46.9605,-3.97845 54,-2.27436 60.9115,-0.601268 63.0885,-0.601268 70,-2.27436 73.7397,-3.17966 77.5278,-4.55764 81.1619,-6.15656"/>
<polygon fill="black" stroke="black" points="79.7754,-9.3767 90.2832,-10.7321 82.9141,-3.11978 79.7754,-9.3767"/>
<text text-anchor="middle" x="62" y="-6.07436" font-family="Times New Roman,serif" font-size="14.00"> λ </text>
</g>
<!-- 1&#45;&gt;0 -->
<g id="edge6" class="edge"><title>1&#45;&gt;0</title>
<path fill="none" stroke="black" d="M87.5966,-20.2744C75.7459,-20.2744 59.8169,-20.2744 46.2917,-20.2744"/>
<polygon fill="black" stroke="black" points="46.084,-16.7745 36.084,-20.2744 46.084,-23.7745 46.084,-16.7745"/>
<text text-anchor="middle" x="62" y="-24.0744" font-family="Times New Roman,serif" font-size="14.00"> μ </text>
</g>
<!-- 2 -->
<g id="node4" class="node"><title>2</title>
<ellipse fill="lightgray" stroke="black" cx="200" cy="-20.2744" rx="18" ry="18"/>
<text text-anchor="middle" x="200" y="-16.5744" font-family="Times New Roman,serif" font-size="14.00">2</text>
</g>
<!-- 1&#45;&gt;2 -->
<g id="edge2" class="edge"><title>1&#45;&gt;2</title>
<path fill="none" stroke="black" d="M121.717,-10.7321C127.75,-7.3574 134.96,-3.97845 142,-2.27436 151.503,0.0261421 154.497,0.0261421 164,-2.27436 167.74,-3.17966 171.528,-4.55764 175.162,-6.15656"/>
<polygon fill="black" stroke="black" points="173.775,-9.3767 184.283,-10.7321 176.914,-3.11978 173.775,-9.3767"/>
<text text-anchor="middle" x="153" y="-6.07436" font-family="Times New Roman,serif" font-size="14.00"> λ </text>
</g>
<!-- 2&#45;&gt;1 -->
<g id="edge7" class="edge"><title>2&#45;&gt;1</title>
<path fill="none" stroke="black" d="M181.696,-20.2744C168.46,-20.2744 149.947,-20.2744 134.663,-20.2744"/>
<polygon fill="black" stroke="black" points="134.227,-16.7745 124.227,-20.2744 134.227,-23.7745 134.227,-16.7745"/>
<text text-anchor="middle" x="153" y="-24.0744" font-family="Times New Roman,serif" font-size="14.00"> 2μ </text>
</g>
<!-- 3 -->
<g id="node5" class="node"><title>3</title>
<ellipse fill="none" stroke="black" cx="294" cy="-20.2744" rx="18" ry="18"/>
<text text-anchor="middle" x="294" y="-16.5744" font-family="Times New Roman,serif" font-size="14.00">3</text>
</g>
<!-- 2&#45;&gt;3 -->
<g id="edge3" class="edge"><title>2&#45;&gt;3</title>
<path fill="none" stroke="black" d="M215.717,-10.7321C221.75,-7.3574 228.96,-3.97845 236,-2.27436 245.503,0.0261421 248.497,0.0261421 258,-2.27436 261.74,-3.17966 265.528,-4.55764 269.162,-6.15656"/>
<polygon fill="black" stroke="black" points="267.775,-9.3767 278.283,-10.7321 270.914,-3.11978 267.775,-9.3767"/>
<text text-anchor="middle" x="247" y="-6.07436" font-family="Times New Roman,serif" font-size="14.00"> λ </text>
</g>
<!-- 3&#45;&gt;2 -->
<g id="edge8" class="edge"><title>3&#45;&gt;2</title>
<path fill="none" stroke="black" d="M275.696,-20.2744C262.46,-20.2744 243.947,-20.2744 228.663,-20.2744"/>
<polygon fill="black" stroke="black" points="228.227,-16.7745 218.227,-20.2744 228.227,-23.7745 228.227,-16.7745"/>
<text text-anchor="middle" x="247" y="-24.0744" font-family="Times New Roman,serif" font-size="14.00"> 3μ </text>
</g>
<!-- 3&#45;&gt;4 -->
<g id="edge4" class="edge"><title>3&#45;&gt;4</title>
<path fill="none" stroke="black" d="M309.717,-10.7321C315.75,-7.3574 322.96,-3.97845 330,-2.27436 342.527,0.75812 346.473,0.75812 359,-2.27436 362.74,-3.17966 366.528,-4.55764 370.162,-6.15656"/>
<polygon fill="black" stroke="black" points="368.775,-9.3767 379.283,-10.7321 371.914,-3.11978 368.775,-9.3767"/>
<text text-anchor="middle" x="344.5" y="-6.07436" font-family="Times New Roman,serif" font-size="14.00"> ¾ λ </text>
</g>
<!-- 4&#45;&gt;5 -->
<g id="edge5" class="edge"><title>4&#45;&gt;5</title>
<path fill="none" stroke="black" d="M410.717,-10.7321C416.75,-7.3574 423.96,-3.97845 431,-2.27436 443.527,0.75812 447.469,0.743744 460,-2.27436 463.758,-3.17941 467.565,-4.55725 471.219,-6.1561"/>
<polygon fill="black" stroke="black" points="469.881,-9.39983 480.392,-10.7316 473.005,-3.13587 469.881,-9.39983"/>
<text text-anchor="middle" x="445.5" y="-6.07436" font-family="Times New Roman,serif" font-size="14.00"> ¾ λ </text>
</g>
<!-- 4&#45;&gt;3 -->
<g id="edge9" class="edge"><title>4&#45;&gt;3</title>
<path fill="none" stroke="black" d="M376.756,-20.2744C361.708,-20.2744 339.616,-20.2744 322.19,-20.2744"/>
<polygon fill="black" stroke="black" points="322.047,-16.7745 312.047,-20.2744 322.047,-23.7745 322.047,-16.7745"/>
<text text-anchor="middle" x="344.5" y="-24.0744" font-family="Times New Roman,serif" font-size="14.00"> 3μ </text>
</g>
</g>
</svg>
