<?xml version="1.0" encoding="UTF-8" standalone="no"?>
<!DOCTYPE svg PUBLIC "-//W3C//DTD SVG 1.1//EN"
 "http://www.w3.org/Graphics/SVG/1.1/DTD/svg11.dtd">
<!-- Generated by graphviz version 2.38.0 (20140413.2041)
 -->
<!-- Title: foo Pages: 1 -->
<svg width="238pt" height="164pt"
 viewBox="0.00 0.00 238.00 164.00" xmlns="http://www.w3.org/2000/svg" xmlns:xlink="http://www.w3.org/1999/xlink">
<g id="graph0" class="graph" transform="scale(1 1) rotate(0) translate(4 160)">
<title>foo</title>
<polygon fill="white" stroke="none" points="-4,4 -4,-160 234,-160 234,4 -4,4"/>
<!-- 1 -->
<g id="node1" class="node"><title>1</title>
<ellipse fill="none" stroke="black" cx="115" cy="-105" rx="18" ry="18"/>
<text text-anchor="middle" x="115" y="-101.3" font-family="Times New Roman,serif" font-size="14.00">1</text>
</g>
<!-- 1&#45;&gt;1 -->
<g id="edge1" class="edge"><title>1&#45;&gt;1</title>
<path fill="none" stroke="black" d="M106.635,-121.29C104.618,-131.389 107.406,-141 115,-141 119.865,-141 122.757,-137.056 123.678,-131.566"/>
<polygon fill="black" stroke="black" points="127.168,-131.179 123.365,-121.29 120.171,-131.392 127.168,-131.179"/>
<text text-anchor="middle" x="115" y="-144.8" font-family="Times New Roman,serif" font-size="14.00"> 1 </text>
</g>
<!-- 2 -->
<g id="node2" class="node"><title>2</title>
<ellipse fill="none" stroke="black" cx="18" cy="-56" rx="18" ry="18"/>
<text text-anchor="middle" x="18" y="-52.3" font-family="Times New Roman,serif" font-size="14.00">2</text>
</g>
<!-- 2&#45;&gt;1 -->
<g id="edge2" class="edge"><title>2&#45;&gt;1</title>
<path fill="none" stroke="black" d="M34.2634,-63.8727C49.2214,-71.5879 72.2548,-83.4683 89.7267,-92.4801"/>
<polygon fill="black" stroke="black" points="88.2826,-95.6733 98.7745,-97.1468 91.4915,-89.4521 88.2826,-95.6733"/>
<text text-anchor="middle" x="66.5" y="-89.8" font-family="Times New Roman,serif" font-size="14.00"> 1/4 </text>
</g>
<!-- 2&#45;&gt;2 -->
<g id="edge3" class="edge"><title>2&#45;&gt;2</title>
<path fill="none" stroke="black" d="M9.63501,-72.2903C7.61792,-82.3892 10.4063,-92 18,-92 22.8647,-92 25.7573,-88.0557 26.6778,-82.5656"/>
<polygon fill="black" stroke="black" points="30.1677,-82.1791 26.365,-72.2903 23.171,-82.3922 30.1677,-82.1791"/>
<text text-anchor="middle" x="18" y="-95.8" font-family="Times New Roman,serif" font-size="14.00"> 1/4 </text>
</g>
<!-- 3 -->
<g id="node3" class="node"><title>3</title>
<ellipse fill="none" stroke="black" cx="115" cy="-18" rx="18" ry="18"/>
<text text-anchor="middle" x="115" y="-14.3" font-family="Times New Roman,serif" font-size="14.00">3</text>
</g>
<!-- 2&#45;&gt;3 -->
<g id="edge4" class="edge"><title>2&#45;&gt;3</title>
<path fill="none" stroke="black" d="M35.1737,-50.4515C47.3244,-46.1911 64.3264,-40.0336 79,-34 82.3136,-32.6375 85.7748,-31.1437 89.1762,-29.6335"/>
<polygon fill="black" stroke="black" points="90.7753,-32.7514 98.4325,-25.4289 87.8802,-26.3781 90.7753,-32.7514"/>
<text text-anchor="middle" x="66.5" y="-46.8" font-family="Times New Roman,serif" font-size="14.00"> 1/2 </text>
</g>
<!-- 3&#45;&gt;2 -->
<g id="edge6" class="edge"><title>3&#45;&gt;2</title>
<path fill="none" stroke="black" d="M97.4271,-13.1683C84.918,-10.446 67.6384,-8.71059 54,-15 45.9926,-18.6927 39.1384,-25.2209 33.6732,-31.9972"/>
<polygon fill="black" stroke="black" points="30.5347,-30.3643 27.5112,-40.5186 36.2071,-34.4661 30.5347,-30.3643"/>
<text text-anchor="middle" x="66.5" y="-18.8" font-family="Times New Roman,serif" font-size="14.00"> 3/4 </text>
</g>
<!-- 3&#45;&gt;3 -->
<g id="edge5" class="edge"><title>3&#45;&gt;3</title>
<path fill="none" stroke="black" d="M106.635,-34.2903C104.618,-44.3892 107.406,-54 115,-54 119.865,-54 122.757,-50.0557 123.678,-44.5656"/>
<polygon fill="black" stroke="black" points="127.168,-44.1791 123.365,-34.2903 120.171,-44.3922 127.168,-44.1791"/>
<text text-anchor="middle" x="115" y="-57.8" font-family="Times New Roman,serif" font-size="14.00"> 1/8 </text>
</g>
<!-- 4 -->
<g id="node4" class="node"><title>4</title>
<ellipse fill="none" stroke="black" cx="212" cy="-18" rx="18" ry="18"/>
<text text-anchor="middle" x="212" y="-14.3" font-family="Times New Roman,serif" font-size="14.00">4</text>
</g>
<!-- 3&#45;&gt;4 -->
<g id="edge7" class="edge"><title>3&#45;&gt;4</title>
<path fill="none" stroke="black" d="M133.424,-18C147.352,-18 167.139,-18 183.243,-18"/>
<polygon fill="black" stroke="black" points="183.686,-21.5001 193.686,-18 183.686,-14.5001 183.686,-21.5001"/>
<text text-anchor="middle" x="163.5" y="-21.8" font-family="Times New Roman,serif" font-size="14.00"> 1/8 </text>
</g>
<!-- 4&#45;&gt;4 -->
<g id="edge8" class="edge"><title>4&#45;&gt;4</title>
<path fill="none" stroke="black" d="M203.635,-34.2903C201.618,-44.3892 204.406,-54 212,-54 216.865,-54 219.757,-50.0557 220.678,-44.5656"/>
<polygon fill="black" stroke="black" points="224.168,-44.1791 220.365,-34.2903 217.171,-44.3922 224.168,-44.1791"/>
<text text-anchor="middle" x="212" y="-57.8" font-family="Times New Roman,serif" font-size="14.00"> 1 </text>
</g>
</g>
</svg>
