<?xml version="1.0" encoding="UTF-8" standalone="no"?>
<!DOCTYPE svg PUBLIC "-//W3C//DTD SVG 1.1//EN"
 "http://www.w3.org/Graphics/SVG/1.1/DTD/svg11.dtd">
<!-- Generated by graphviz version 2.38.0 (20140413.2041)
 -->
<!-- Title: foo Pages: 1 -->
<svg width="402pt" height="76pt"
 viewBox="0.00 0.00 402.00 76.13" xmlns="http://www.w3.org/2000/svg" xmlns:xlink="http://www.w3.org/1999/xlink">
<g id="graph0" class="graph" transform="scale(1 1) rotate(0) translate(4 72.1335)">
<title>foo</title>
<polygon fill="white" stroke="none" points="-4,4 -4,-72.1335 398,-72.1335 398,4 -4,4"/>
<!-- 1 -->
<g id="node1" class="node"><title>1</title>
<ellipse fill="none" stroke="black" cx="18" cy="-20.1335" rx="18" ry="18"/>
<text text-anchor="middle" x="18" y="-16.4335" font-family="Times New Roman,serif" font-size="14.00">1</text>
</g>
<!-- 2 -->
<g id="node2" class="node"><title>2</title>
<ellipse fill="none" stroke="black" cx="105" cy="-50.1335" rx="18" ry="18"/>
<text text-anchor="middle" x="105" y="-46.4335" font-family="Times New Roman,serif" font-size="14.00">2</text>
</g>
<!-- 1&#45;&gt;2 -->
<g id="edge1" class="edge"><title>1&#45;&gt;2</title>
<path fill="none" stroke="black" d="M35.3889,-25.9178C47.5007,-30.1925 64.2318,-36.0976 78.1397,-41.0063"/>
<polygon fill="black" stroke="black" points="77.0667,-44.3391 87.6615,-44.3669 79.3964,-37.7382 77.0667,-44.3391"/>
<text text-anchor="middle" x="61.5" y="-39.9335" font-family="Times New Roman,serif" font-size="14.00"> 1 </text>
</g>
<!-- 3 -->
<g id="node3" class="node"><title>3</title>
<ellipse fill="none" stroke="black" cx="192" cy="-20.1335" rx="18" ry="18"/>
<text text-anchor="middle" x="192" y="-16.4335" font-family="Times New Roman,serif" font-size="14.00">3</text>
</g>
<!-- 2&#45;&gt;3 -->
<g id="edge2" class="edge"><title>2&#45;&gt;3</title>
<path fill="none" stroke="black" d="M122.389,-44.3492C134.501,-40.0744 151.232,-34.1693 165.14,-29.2606"/>
<polygon fill="black" stroke="black" points="166.396,-32.5287 174.661,-25.9 164.067,-25.9278 166.396,-32.5287"/>
<text text-anchor="middle" x="148.5" y="-39.9335" font-family="Times New Roman,serif" font-size="14.00"> 1 </text>
</g>
<!-- 3&#45;&gt;1 -->
<g id="edge3" class="edge"><title>3&#45;&gt;1</title>
<path fill="none" stroke="black" d="M174.341,-16.3546C160.64,-13.45 140.675,-9.68102 123,-8.13345 107.061,-6.73785 102.939,-6.73785 87,-8.13345 73.1917,-9.34249 57.985,-11.9073 45.4598,-14.3566"/>
<polygon fill="black" stroke="black" points="44.7584,-10.9276 35.659,-16.3546 46.1566,-17.7865 44.7584,-10.9276"/>
<text text-anchor="middle" x="105" y="-11.9335" font-family="Times New Roman,serif" font-size="14.00"> 1/2 </text>
</g>
<!-- 4 -->
<g id="node4" class="node"><title>4</title>
<ellipse fill="none" stroke="black" cx="289" cy="-20.1335" rx="18" ry="18"/>
<text text-anchor="middle" x="289" y="-16.4335" font-family="Times New Roman,serif" font-size="14.00">4</text>
</g>
<!-- 3&#45;&gt;4 -->
<g id="edge4" class="edge"><title>3&#45;&gt;4</title>
<path fill="none" stroke="black" d="M210.424,-20.1335C224.352,-20.1335 244.139,-20.1335 260.243,-20.1335"/>
<polygon fill="black" stroke="black" points="260.686,-23.6335 270.686,-20.1335 260.686,-16.6335 260.686,-23.6335"/>
<text text-anchor="middle" x="240.5" y="-23.9335" font-family="Times New Roman,serif" font-size="14.00"> 1/2 </text>
</g>
<!-- 5 -->
<g id="node5" class="node"><title>5</title>
<ellipse fill="none" stroke="black" cx="376" cy="-20.1335" rx="18" ry="18"/>
<text text-anchor="middle" x="376" y="-16.4335" font-family="Times New Roman,serif" font-size="14.00">5</text>
</g>
<!-- 4&#45;&gt;5 -->
<g id="edge5" class="edge"><title>4&#45;&gt;5</title>
<path fill="none" stroke="black" d="M307.201,-20.1335C318.837,-20.1335 334.452,-20.1335 347.763,-20.1335"/>
<polygon fill="black" stroke="black" points="347.825,-23.6336 357.825,-20.1335 347.825,-16.6336 347.825,-23.6336"/>
<text text-anchor="middle" x="332.5" y="-23.9335" font-family="Times New Roman,serif" font-size="14.00"> 1 </text>
</g>
<!-- 5&#45;&gt;4 -->
<g id="edge6" class="edge"><title>5&#45;&gt;4</title>
<path fill="none" stroke="black" d="M360.689,-10.2677C354.598,-6.63998 347.237,-2.97123 340,-1.13345 331.073,1.13345 321.557,-1.20852 313.249,-4.92825"/>
<polygon fill="black" stroke="black" points="311.364,-1.96598 304.159,-9.73417 314.636,-8.15432 311.364,-1.96598"/>
<text text-anchor="middle" x="332.5" y="-4.93345" font-family="Times New Roman,serif" font-size="14.00"> 1 </text>
</g>
</g>
</svg>
