<?xml version="1.0" encoding="UTF-8" standalone="no"?>
<!DOCTYPE svg PUBLIC "-//W3C//DTD SVG 1.1//EN"
 "http://www.w3.org/Graphics/SVG/1.1/DTD/svg11.dtd">
<!-- Generated by graphviz version 2.38.0 (20140413.2041)
 -->
<!-- Title: foo Pages: 1 -->
<svg width="252pt" height="126pt"
 viewBox="0.00 0.00 252.00 126.21" xmlns="http://www.w3.org/2000/svg" xmlns:xlink="http://www.w3.org/1999/xlink">
<g id="graph0" class="graph" transform="scale(1 1) rotate(0) translate(4 122.215)">
<title>foo</title>
<polygon fill="white" stroke="none" points="-4,4 -4,-122.215 248,-122.215 248,4 -4,4"/>
<!-- A -->
<g id="node1" class="node"><title>A</title>
<ellipse fill="none" stroke="black" cx="18" cy="-22.215" rx="18" ry="18"/>
<text text-anchor="middle" x="18" y="-18.515" font-family="Times New Roman,serif" font-size="14.00">A</text>
</g>
<!-- A&#45;&gt;A -->
<g id="edge1" class="edge"><title>A&#45;&gt;A</title>
<path fill="none" stroke="black" d="M9.02124,-38.131C6.67896,-48.3653 9.67188,-58.215 18,-58.215 23.4653,-58.215 26.633,-53.9731 27.503,-48.1643"/>
<polygon fill="black" stroke="black" points="30.9958,-47.9347 26.9788,-38.131 24.0054,-48.3 30.9958,-47.9347"/>
<text text-anchor="middle" x="18" y="-62.015" font-family="Times New Roman,serif" font-size="14.00"> 0,9 </text>
</g>
<!-- B -->
<g id="node2" class="node"><title>B</title>
<ellipse fill="none" stroke="black" cx="122" cy="-67.215" rx="18" ry="18"/>
<text text-anchor="middle" x="122" y="-63.515" font-family="Times New Roman,serif" font-size="14.00">B</text>
</g>
<!-- A&#45;&gt;B -->
<g id="edge2" class="edge"><title>A&#45;&gt;B</title>
<path fill="none" stroke="black" d="M29.9432,-35.7724C36.2506,-42.6683 44.7513,-50.5563 54,-55.215 66.2853,-61.4031 81.2511,-64.4448 93.9197,-65.922"/>
<polygon fill="black" stroke="black" points="93.636,-69.4105 103.912,-66.8296 94.2692,-62.4392 93.636,-69.4105"/>
<text text-anchor="middle" x="70" y="-68.015" font-family="Times New Roman,serif" font-size="14.00"> 0,05 </text>
</g>
<!-- C -->
<g id="node3" class="node"><title>C</title>
<ellipse fill="none" stroke="black" cx="226" cy="-22.215" rx="18" ry="18"/>
<text text-anchor="middle" x="226" y="-18.515" font-family="Times New Roman,serif" font-size="14.00">C</text>
</g>
<!-- A&#45;&gt;C -->
<g id="edge3" class="edge"><title>A&#45;&gt;C</title>
<path fill="none" stroke="black" d="M36.0878,-21.629C41.7842,-21.4598 48.1649,-21.2983 54,-21.215 114.438,-20.3517 129.562,-20.3517 190,-21.215 192.553,-21.2514 195.21,-21.3028 197.869,-21.3633"/>
<polygon fill="black" stroke="black" points="197.823,-24.8632 207.912,-21.629 198.008,-17.8657 197.823,-24.8632"/>
<text text-anchor="middle" x="122" y="-24.015" font-family="Times New Roman,serif" font-size="14.00"> 0,05 </text>
</g>
<!-- B&#45;&gt;A -->
<g id="edge5" class="edge"><title>B&#45;&gt;A</title>
<path fill="none" stroke="black" d="M109.231,-53.9651C102.939,-47.6713 94.7044,-40.5866 86,-36.215 73.6386,-30.0067 58.6659,-26.5497 46.0125,-24.6256"/>
<polygon fill="black" stroke="black" points="46.4021,-21.1469 36.0373,-23.343 45.5093,-28.0898 46.4021,-21.1469"/>
<text text-anchor="middle" x="70" y="-40.015" font-family="Times New Roman,serif" font-size="14.00"> 0,1 </text>
</g>
<!-- B&#45;&gt;B -->
<g id="edge4" class="edge"><title>B&#45;&gt;B</title>
<path fill="none" stroke="black" d="M113.021,-83.131C110.679,-93.3653 113.672,-103.215 122,-103.215 127.465,-103.215 130.633,-98.9731 131.503,-93.1643"/>
<polygon fill="black" stroke="black" points="134.996,-92.9347 130.979,-83.131 128.005,-93.3 134.996,-92.9347"/>
<text text-anchor="middle" x="122" y="-107.015" font-family="Times New Roman,serif" font-size="14.00"> 0,8 </text>
</g>
<!-- B&#45;&gt;C -->
<g id="edge6" class="edge"><title>B&#45;&gt;C</title>
<path fill="none" stroke="black" d="M140.088,-66.8296C154.158,-65.9014 174.275,-63.1358 190,-55.215 196.069,-52.1577 201.817,-47.7097 206.833,-43.064"/>
<polygon fill="black" stroke="black" points="209.506,-45.3399 214.057,-35.7724 204.533,-40.4135 209.506,-45.3399"/>
<text text-anchor="middle" x="174" y="-68.015" font-family="Times New Roman,serif" font-size="14.00"> 0,1 </text>
</g>
<!-- C&#45;&gt;A -->
<g id="edge8" class="edge"><title>C&#45;&gt;A</title>
<path fill="none" stroke="black" d="M208.608,-16.907C191.65,-11.7153 164.294,-4.17151 140,-1.21496 107.036,2.79678 69.3944,-5.84607 44.9686,-13.2304"/>
<polygon fill="black" stroke="black" points="43.8355,-9.91786 35.3617,-16.2775 45.9519,-16.5903 43.8355,-9.91786"/>
<text text-anchor="middle" x="122" y="-5.01496" font-family="Times New Roman,serif" font-size="14.00"> 0,15 </text>
</g>
<!-- C&#45;&gt;B -->
<g id="edge9" class="edge"><title>C&#45;&gt;B</title>
<path fill="none" stroke="black" d="M207.963,-23.343C193.924,-24.8295 173.823,-28.2684 158,-36.215 152.424,-39.0155 147.04,-42.9296 142.237,-47.0358"/>
<polygon fill="black" stroke="black" points="139.719,-44.5977 134.769,-53.9651 144.48,-49.7291 139.719,-44.5977"/>
<text text-anchor="middle" x="174" y="-40.015" font-family="Times New Roman,serif" font-size="14.00"> 0,15 </text>
</g>
<!-- C&#45;&gt;C -->
<g id="edge7" class="edge"><title>C&#45;&gt;C</title>
<path fill="none" stroke="black" d="M217.021,-38.131C214.679,-48.3653 217.672,-58.215 226,-58.215 231.465,-58.215 234.633,-53.9731 235.503,-48.1643"/>
<polygon fill="black" stroke="black" points="238.996,-47.9347 234.979,-38.131 232.005,-48.3 238.996,-47.9347"/>
<text text-anchor="middle" x="226" y="-62.015" font-family="Times New Roman,serif" font-size="14.00"> 0,7 </text>
</g>
</g>
</svg>
